<svg xmlns="http://www.w3.org/2000/svg" width="900" height="318" viewBox="0 0 900 318" role="img" aria-labelledby="t d">
<title id="t">64 | Sum vs product</title>
<desc id="d">rank(A+B) ≤ rank(A)+rank(B)     •     rank(AB) ≤ min(rA,rB)</desc>
<rect width="900" height="318" rx="16" fill="#172437"/>
<rect x="1" y="1" width="898" height="316" rx="15" fill="none" stroke="#394860"/>
<text x="30" y="44" fill="#F8FAFC" font-family="system-ui,sans-serif" font-weight="700" font-size="25">64 | Sum vs product</text>
<path d="M30 63 H870" stroke="#3B4B63" stroke-width="1"/>
<rect x="30" y="88" width="266" height="162" rx="12" fill="#24354D" stroke="#41536C"/>
<rect x="42" y="102" width="5" height="19" rx="2" fill="#60A5FA"/>
<text x="57" y="119" fill="#D8E2F0" font-family="system-ui,sans-serif" font-size="14" font-weight="650">INPUT A</text>
<text x="45" y="167" fill="#60A5FA" font-family="ui-monospace,monospace" font-size="19" font-weight="700">[1  0]</text>
<text x="45" y="206" fill="#F1F5F9" font-family="system-ui,sans-serif" font-size="14">[0  0]  •  rank 1</text>
<path d="M302 165 l10 0 m-4 -5 l5 5 l-5 5" stroke="#CBD5E1" fill="none" stroke-width="2"/>
<rect x="317" y="88" width="266" height="162" rx="12" fill="#24354D" stroke="#41536C"/>
<rect x="329" y="102" width="5" height="19" rx="2" fill="#FBBF24"/>
<text x="344" y="119" fill="#D8E2F0" font-family="system-ui,sans-serif" font-size="14" font-weight="650">INPUT B</text>
<text x="332" y="167" fill="#FBBF24" font-family="ui-monospace,monospace" font-size="19" font-weight="700">[0  0]</text>
<text x="332" y="206" fill="#F1F5F9" font-family="system-ui,sans-serif" font-size="14">[0  1]  •  rank 1</text>
<path d="M589 165 l10 0 m-4 -5 l5 5 l-5 5" stroke="#CBD5E1" fill="none" stroke-width="2"/>
<rect x="604" y="88" width="266" height="162" rx="12" fill="#24354D" stroke="#41536C"/>
<rect x="616" y="102" width="5" height="19" rx="2" fill="#C4B5FD"/>
<text x="631" y="119" fill="#D8E2F0" font-family="system-ui,sans-serif" font-size="14" font-weight="650">OUTCOMES</text>
<text x="619" y="167" fill="#C4B5FD" font-family="ui-monospace,monospace" font-size="19" font-weight="700">rank(A+B) = 2</text>
<text x="619" y="206" fill="#F1F5F9" font-family="system-ui,sans-serif" font-size="14">rank(AB) = 0</text>
<text x="31" y="286" fill="#D8E2F0" font-family="system-ui,sans-serif" font-size="15">rank(A+B) ≤ rank(A)+rank(B)     •     rank(AB) ≤ min(rA,rB)</text>
</svg>